<svg width="32" height="32" viewBox="0 0 32 32" fill="none" xmlns="http://www.w3.org/2000/svg">
<g clip-path="url(#clip0)">
<path d="M10.264 10.6875H21.7256V23.728H10.264V10.6875Z" fill="#2F5BEA"/>
<path d="M26.0806 7.29948C26.402 6.93344 26.579 6.46302 26.579 5.97622V1.99812C26.5805 0.897971 25.6914 0.00403356 24.5912 0H22.6808C21.5807 0.00403356 20.6915 0.897971 20.693 1.99812V4.2791H18.9377V1.99812C18.9395 0.897971 18.0501 0.00403356 16.9499 0H15.0398C13.9396 0.00403356 13.0502 0.897971 13.052 1.99812V4.2791H11.2966V1.99812C11.2984 0.897971 10.409 0.00403356 9.30882 0H7.39843C6.29827 0.00403356 5.40913 0.897971 5.41089 1.99812V5.97345C5.41064 6.4605 5.58761 6.93092 5.90904 7.29671L9.23143 11.0782V16.1751H11.2966V11.72H20.693V22.6933H11.2966V18.2393H9.23143V23.3367L5.41089 27.6823V32H22.4486V29.9348H7.47607V28.4598L10.7312 24.7575H21.261L24.5138 28.4598V32H26.579V27.6818L22.7582 23.3367V11.0782L26.0806 7.29948ZM21.261 9.65483H10.7286L7.47607 5.97446V2.06518H9.23143V4.34566C9.22966 5.44581 10.1188 6.33975 11.2192 6.34378H13.1294C14.2295 6.33975 15.1189 5.44581 15.1171 4.34566V2.06518H16.8725V4.34566C16.8707 5.44581 17.7601 6.33975 18.8603 6.34378H20.7707C21.8708 6.33975 22.76 5.44581 22.7582 4.34566V2.06518H24.5138L24.5292 5.9374L21.261 9.65483Z" fill="#2C2E30"/>
</g>
<defs>
<clipPath id="clip0">
<rect width="32" height="32" fill="white"/>
</clipPath>
</defs>
</svg>
