<svg width="32" height="32" viewBox="0 0 32 32" fill="none" xmlns="http://www.w3.org/2000/svg">
<g clip-path="url(#clip0)">
<path d="M25.8331 13.0266C25.817 14.3224 24.9873 15.468 23.7613 15.8878C22.5352 16.3078 21.1774 15.9112 20.3701 14.8974C17.9253 11.8573 16.6146 12.6531 14.5199 9.3383C13.9462 8.43283 13.8876 7.29325 14.3657 6.33361C14.8438 5.37424 15.7886 4.73466 16.8571 4.64716C19.1839 4.46903 21.4787 5.27398 23.1847 6.86616C24.8904 8.45861 25.8511 10.693 25.8331 13.0266Z" fill="#4370FF"/>
<path d="M17.5023 6.95148e-06H17.4773C10.8989 -0.00676385 5.36718 4.93334 4.63306 11.4706L1.68619 18.3352C1.54504 18.6648 1.57864 19.0432 1.77603 19.3427C1.97343 19.6422 2.3078 19.8224 2.6664 19.8227H7.24348V18.756C7.24348 18.1669 6.76588 17.6893 6.17681 17.6893H4.28515L6.6565 12.1649C6.69947 12.0651 6.72681 11.9594 6.73775 11.8513C7.28645 6.33074 11.9338 2.12709 17.4815 2.13334H17.5023C23.4578 2.14271 28.2901 6.956 28.3226 12.9115C28.3307 16.7888 26.2706 20.376 22.9174 22.3232C22.5456 22.5385 22.3396 22.9563 22.3948 23.3823L23.2289 29.8667H13.7987L14.8872 24.7034C14.9596 24.3581 14.8568 23.9992 14.6125 23.7448C14.3682 23.4904 14.0138 23.3729 13.6659 23.4315L8.27056 24.3417C8.01483 24.3849 7.75312 24.3133 7.5552 24.1456C7.35728 23.9781 7.24322 23.732 7.24348 23.4727V21.956H5.11015V23.4727C5.11015 24.3599 5.50077 25.2018 6.17838 25.7747C6.85572 26.3474 7.75103 26.5927 8.62577 26.4453L12.4768 25.7956L11.4398 30.7133C11.3737 31.0279 11.4529 31.3555 11.6555 31.6052C11.8578 31.855 12.1622 32 12.4836 32H24.4419C24.7487 32 25.0404 31.868 25.243 31.6378C25.4456 31.4076 25.5391 31.1013 25.5 30.7971L24.5982 23.7919C28.2625 21.3828 30.4651 17.2885 30.456 12.9034C30.4177 5.77318 24.6325 0.0104236 17.5023 6.95148e-06Z" fill="#2C2E30"/>
<path d="M21.2013 14.2288C18.6786 11.0913 17.333 11.7911 15.4211 8.76843C15.0463 8.17911 15.0073 7.43692 15.3179 6.8114C15.6284 6.18588 16.2435 5.76843 16.9393 5.71062C18.9695 5.54473 20.975 6.24786 22.457 7.64577C23.6151 8.73249 24.3867 10.1676 24.6544 11.7333H26.8083C26.1661 6.77937 21.7557 3.19655 16.7752 3.58353C15.3338 3.69968 14.058 4.56114 13.4122 5.85515C12.7664 7.1489 12.8442 8.6864 13.6179 9.90827C15.8815 13.488 17.212 12.6721 19.5388 15.5658C20.5325 16.8117 22.1547 17.3744 23.7065 17.0111C25.2583 16.6481 26.4625 15.4242 26.8002 13.8666H24.5708C24.2674 14.4835 23.6692 14.902 22.9859 14.9755C22.3023 15.0489 21.6289 14.7671 21.2013 14.2288Z" fill="white"/>
</g>
<defs>
<clipPath id="clip0">
<rect width="32" height="32" fill="white"/>
</clipPath>
</defs>
</svg>
