<svg width="32" height="32" viewBox="0 0 32 32" fill="none" xmlns="http://www.w3.org/2000/svg">
<g clip-path="url(#clip0)">
<path d="M16.4861 3.61279H15.4539L1.03226 13.6413V14.1574H5.24546V28.387H9.39365V20.5538C9.39365 19.2995 10.4103 18.2827 11.6646 18.2827C12.9188 18.2827 13.9355 19.2995 13.9355 20.5538V28.387H18.0645V20.5538C18.0645 19.2995 19.0811 18.2827 20.3354 18.2827C21.5897 18.2827 22.6063 19.2995 22.6063 20.5538V28.387H26.7545V14.1569H30.9677V13.6408L16.4861 3.61279ZM16 11.4359C15.0023 11.4359 14.1935 10.6269 14.1935 9.62943C14.1935 8.6317 15.0023 7.82298 16 7.82298C16.9977 7.82298 17.8064 8.6317 17.8064 9.62943C17.8064 10.6269 16.9977 11.4359 16 11.4359Z" fill="#2F5BEA"/>
<path d="M27.7868 25.2902V15.1892H32V13.1007L16.8087 2.58057H15.1303L0 13.1017V15.1892H4.21321V27.3548H1.9375V29.4193H30.0625V27.3548H23.6386V20.5539C23.6386 18.7295 22.1598 17.2504 20.3354 17.2504C18.5111 17.2504 17.0323 18.7295 17.0323 20.5539V27.3548H14.9677V20.5539C14.9677 18.7295 13.4889 17.2504 11.6646 17.2504C9.84022 17.2504 8.36139 18.7295 8.36139 20.5539V27.3548H6.27772V13.1247H3.58342L15.7775 4.64508H16.1636L28.4083 13.1247H8.34224V15.1892H25.7223V25.2902H27.7868ZM19.0968 20.5539C19.0968 19.8696 19.6515 19.3149 20.3354 19.3149C21.0197 19.3149 21.5741 19.8696 21.5741 20.5539V27.3548H19.0968V20.5539ZM10.4259 20.5539C10.4259 19.8696 10.9803 19.3149 11.6646 19.3149C12.3485 19.3149 12.9032 19.8696 12.9032 20.5539V27.3548H10.4259V20.5539Z" fill="#2C2E30"/>
</g>
<defs>
<clipPath id="clip0">
<rect width="32" height="32" fill="white"/>
</clipPath>
</defs>
</svg>
