<svg width="412" height="523" viewBox="0 0 412 523" fill="none" xmlns="http://www.w3.org/2000/svg">
<g clip-path="url(#clip0)">
<path opacity="0.3" d="M209.76 91.298C206.71 91.3438 203.7 90.6088 201.013 89.1629L137.013 52.2038C135.8 51.6208 134.77 50.7148 134.036 49.585C133.302 48.4553 132.893 47.1453 132.853 45.7984C132.999 44.1583 133.575 42.5858 134.523 41.2399C135.47 39.8939 136.756 38.8223 138.251 38.1333L199.755 2.77554C205.643 -0.619316 214.325 -0.939585 219.509 2.135L283.509 39.0941C284.743 39.6621 285.795 40.5616 286.548 41.6925C287.302 42.8234 287.727 44.1413 287.776 45.4995C287.623 47.1431 287.043 48.7179 286.092 50.0666C285.141 51.4154 283.853 52.4909 282.357 53.186L220.768 88.5224C217.394 90.3693 213.606 91.3246 209.76 91.298ZM210.805 4.52635C207.743 4.48548 204.719 5.21993 202.016 6.66148L140.576 42.19C138.613 43.3217 137.419 44.7308 137.419 45.9479C137.419 47.1649 138.613 47.9762 139.317 48.3819L203.275 85.4051C207.051 87.5402 213.941 87.2626 218.507 84.6791L279.925 49.1079C281.909 47.9762 283.083 46.5671 283.083 45.35C283.083 44.133 281.909 43.3217 281.184 42.916L217.184 5.97824C215.214 4.9639 213.02 4.46446 210.805 4.52635Z" fill="#EAE6FF"/>
<path opacity="0.7" d="M345.995 222.843C344.358 222.895 342.735 222.527 341.28 221.776L303.456 199.912C302.89 199.641 302.407 199.222 302.058 198.7C301.708 198.178 301.506 197.571 301.472 196.944C301.56 196.136 301.858 195.366 302.338 194.71C302.817 194.054 303.46 193.536 304.203 193.208L340.469 172.198C342.093 171.305 343.901 170.802 345.752 170.728C347.603 170.654 349.446 171.011 351.136 171.771L388.96 193.635C389.529 193.905 390.015 194.322 390.368 194.844C390.72 195.366 390.927 195.973 390.965 196.602C390.871 197.411 390.568 198.181 390.085 198.837C389.603 199.492 388.957 200.01 388.213 200.339L351.947 221.327C350.121 222.324 348.074 222.846 345.995 222.843ZM346.613 171.6C344.64 171.58 342.694 172.065 340.96 173.009L304.693 193.998C304.083 194.259 303.551 194.673 303.147 195.201C302.743 195.728 302.482 196.35 302.389 197.008C302.428 197.486 302.592 197.946 302.865 198.34C303.139 198.733 303.512 199.048 303.947 199.25L341.771 221.092C343.344 221.796 345.059 222.123 346.781 222.049C348.503 221.975 350.183 221.501 351.691 220.665L387.957 199.677C388.568 199.413 389.102 198.999 389.508 198.472C389.915 197.946 390.182 197.324 390.283 196.667C390.225 196.205 390.049 195.766 389.772 195.392C389.496 195.018 389.128 194.722 388.704 194.531L350.88 172.518C349.567 171.825 348.097 171.486 346.613 171.536V171.6Z" fill="#6B5E9A"/>
<path opacity="0.7" d="M351.477 506.026C350.646 506.055 349.822 505.863 349.088 505.47L330.763 494.795C330.449 494.652 330.18 494.425 329.988 494.138C329.796 493.852 329.688 493.517 329.675 493.172C329.721 492.74 329.88 492.328 330.134 491.976C330.388 491.624 330.73 491.345 331.125 491.165L348.725 481.002C349.549 480.534 350.473 480.271 351.419 480.234C352.366 480.196 353.307 480.387 354.165 480.788L372.469 491.464C372.781 491.611 373.046 491.839 373.238 492.125C373.429 492.411 373.54 492.743 373.557 493.087C373.511 493.519 373.353 493.931 373.098 494.283C372.844 494.635 372.502 494.914 372.107 495.094L354.507 505.257C353.58 505.77 352.536 506.035 351.477 506.026ZM349.515 504.745C350.241 505.062 351.031 505.208 351.822 505.171C352.614 505.134 353.387 504.915 354.08 504.531L371.68 494.368C372.32 493.984 372.704 493.514 372.704 493.087C372.679 492.894 372.605 492.71 372.489 492.553C372.373 492.396 372.22 492.271 372.043 492.19L353.739 481.621C353.01 481.3 352.218 481.151 351.423 481.184C350.628 481.217 349.851 481.433 349.152 481.813L331.552 491.998C330.912 492.361 330.528 492.831 330.528 493.258C330.552 493.451 330.625 493.636 330.741 493.793C330.857 493.95 331.011 494.075 331.189 494.154L349.515 504.745Z" fill="#6B5E9A"/>
<path opacity="0.7" d="M252.512 509.762C250.592 509.777 248.699 509.307 247.008 508.396L131.211 441.481C130.534 441.178 129.948 440.703 129.51 440.104C129.072 439.505 128.798 438.802 128.715 438.065C128.751 437.49 128.94 436.935 129.262 436.458C129.585 435.981 130.029 435.6 130.549 435.353L279.413 349.329C280.959 348.624 282.647 348.291 284.344 348.358C286.041 348.424 287.699 348.889 289.184 349.713L404.981 416.628C405.658 416.931 406.244 417.406 406.682 418.005C407.12 418.604 407.394 419.307 407.477 420.044C407.437 420.623 407.242 421.181 406.911 421.658C406.581 422.136 406.128 422.515 405.6 422.756L256.779 508.78C255.463 509.466 253.995 509.804 252.512 509.762ZM283.68 349.179C282.344 349.141 281.021 349.45 279.84 350.076L130.976 436.079C130.589 436.259 130.256 436.537 130.009 436.885C129.762 437.233 129.61 437.64 129.568 438.065C129.664 438.656 129.911 439.212 130.285 439.679C130.658 440.147 131.146 440.51 131.701 440.733L247.499 507.648C248.852 508.404 250.364 508.832 251.912 508.899C253.46 508.965 255.003 508.669 256.416 508.033L405.28 422.008C405.668 421.836 406.003 421.563 406.25 421.217C406.498 420.872 406.649 420.467 406.688 420.044C406.591 419.451 406.345 418.892 405.971 418.421C405.598 417.95 405.11 417.583 404.555 417.354L288.757 350.46C287.203 349.604 285.454 349.162 283.68 349.179Z" fill="#6B5E9A"/>
<path opacity="0.4" d="M261.536 522.082L410.4 436.058C412.789 434.67 412.533 432.257 409.717 430.656L293.92 363.741C292.504 362.954 290.923 362.509 289.304 362.442C287.685 362.375 286.074 362.688 284.597 363.356L135.733 449.381C133.344 450.769 133.6 453.181 136.395 454.783L252.192 521.676C253.61 522.467 255.194 522.915 256.816 522.986C258.438 523.056 260.054 522.747 261.536 522.082Z" fill="#0B0244"/>
<path d="M253.323 491.848L397.856 408.343C400.181 406.998 399.883 404.65 397.195 403.091L284.789 338.14C283.413 337.374 281.876 336.94 280.302 336.873C278.727 336.806 277.159 337.109 275.723 337.756L131.189 421.282C128.864 422.627 129.056 424.955 131.851 426.513L244.277 491.464C245.649 492.235 247.183 492.672 248.754 492.739C250.326 492.806 251.891 492.5 253.323 491.848Z" fill="url(#paint0_linear)"/>
<path d="M125.579 400.55L165.067 397.967L276 333.913C277.475 333.24 279.088 332.924 280.707 332.991C282.327 333.058 283.908 333.505 285.323 334.297L372.256 384.516L403.403 382.487V404.18C403.379 404.678 403.219 405.161 402.941 405.575C402.663 405.989 402.276 406.319 401.824 406.529L253.003 492.553C251.524 493.226 249.908 493.542 248.285 493.475C246.662 493.408 245.077 492.961 243.659 492.169L127.861 425.254C127.267 424.992 126.749 424.585 126.354 424.07C125.958 423.555 125.699 422.949 125.6 422.307L125.579 400.55Z" fill="url(#paint1_linear)"/>
<path d="M253.003 470.625L401.867 384.6C404.256 383.213 404 380.8 401.184 379.22L285.387 312.305C283.972 311.513 282.391 311.066 280.771 310.999C279.152 310.932 277.539 311.248 276.064 311.921L127.2 397.924C124.811 399.311 125.067 401.724 127.861 403.325L243.659 470.24C245.077 471.033 246.662 471.48 248.285 471.547C249.908 471.614 251.524 471.298 253.003 470.625Z" fill="url(#paint2_linear)"/>
<path d="M401.867 382.914L253.003 468.938C251.524 469.611 249.908 469.927 248.285 469.86C246.662 469.794 245.077 469.346 243.659 468.554L127.861 401.639C126.93 401.188 126.178 400.436 125.728 399.504C125.216 400.785 125.92 402.258 127.861 403.368L243.659 470.283C245.077 471.075 246.662 471.523 248.285 471.59C249.908 471.657 251.524 471.341 253.003 470.668L401.867 384.643C402.475 384.396 402.963 383.92 403.226 383.318C403.489 382.716 403.507 382.034 403.275 381.419C402.989 382.063 402.492 382.59 401.867 382.914Z" fill="white"/>
<g opacity="0.5">
<path opacity="0.5" d="M313.035 361.029L208.715 421.325C208.573 421.407 208.455 421.526 208.374 421.668C208.292 421.811 208.249 421.972 208.249 422.136C208.249 422.3 208.292 422.461 208.374 422.604C208.455 422.746 208.573 422.865 208.715 422.947L214.752 426.492C215.159 426.732 215.623 426.859 216.096 426.859C216.569 426.859 217.033 426.732 217.44 426.492L321.76 366.217C321.902 366.134 322.019 366.016 322.101 365.873C322.182 365.731 322.225 365.57 322.225 365.406C322.225 365.242 322.182 365.08 322.101 364.938C322.019 364.796 321.902 364.677 321.76 364.594L315.701 361.05C315.297 360.815 314.838 360.689 314.371 360.685C313.903 360.681 313.443 360.8 313.035 361.029Z" fill="#24126A"/>
</g>
<path d="M323.659 109.852L311.477 102.828C311.187 102.697 310.869 102.642 310.551 102.668C310.234 102.694 309.929 102.801 309.664 102.977L204.768 163.615C203.899 164.24 203.188 165.06 202.692 166.009C202.195 166.958 201.927 168.01 201.909 169.081V407.81C201.862 408.248 201.93 408.691 202.106 409.096C202.281 409.5 202.559 409.851 202.912 410.116L215.072 417.14L215.349 403.86L309.6 349.435C310.473 348.814 311.186 347.995 311.683 347.045C312.18 346.095 312.446 345.041 312.459 343.969V116.108C312.693 116.877 312.885 117.453 312.907 117.475C312.928 117.496 323.659 109.852 323.659 109.852Z" fill="url(#paint3_linear)"/>
<path d="M201.995 168.205L233.675 186.525L238.475 183.749L204.341 163.978C203.088 165.068 202.258 166.564 201.995 168.205Z" fill="url(#paint4_linear)"/>
<path d="M321.76 356.417L216.864 417.033C215.285 417.952 214.005 417.033 214.005 414.898V176.063C214.022 174.991 214.289 173.939 214.785 172.99C215.282 172.04 215.994 171.221 216.864 170.597L321.76 109.98C323.339 109.062 324.619 109.98 324.619 112.115V350.951C324.602 352.022 324.335 353.075 323.839 354.024C323.342 354.973 322.63 355.793 321.76 356.417Z" fill="url(#paint5_linear)"/>
<path d="M324.619 337.884L214.005 401.789V189.13L324.619 125.225V337.884Z" fill="#24126A"/>
<path d="M324.619 337.884L214.005 401.789V189.13L324.619 125.225V337.884Z" fill="#24126A"/>
<g opacity="0.51">
<path opacity="0.51" d="M324.619 330.433L214.005 394.337V195.941L324.619 132.036V330.433Z" fill="#453C9E"/>
</g>
<path d="M277.941 146.064L257.931 157.679C257.333 157.999 256.843 158.106 256.629 157.551C256.556 157.338 256.52 157.114 256.523 156.889C256.528 156.358 256.658 155.836 256.902 155.365C257.147 154.893 257.499 154.487 257.931 154.178L278.155 142.498C278.155 142.498 278.155 142.498 278.325 142.498C278.965 142.669 279.072 142.797 279.072 143.758V144.014C279.103 144.429 279.013 144.844 278.812 145.208C278.612 145.572 278.309 145.87 277.941 146.064Z" fill="#5761D7"/>
<path d="M278.325 142.413C278.417 142.629 278.461 142.862 278.453 143.096C278.443 143.625 278.308 144.145 278.059 144.612C277.811 145.079 277.456 145.482 277.024 145.787L256.821 157.466H256.629C256.67 157.593 256.741 157.709 256.836 157.803C256.931 157.898 257.047 157.968 257.175 158.008C257.302 158.047 257.438 158.056 257.569 158.032C257.701 158.008 257.825 157.953 257.931 157.871L278.155 146.192C278.581 145.878 278.93 145.471 279.174 145C279.418 144.53 279.551 144.01 279.563 143.481C279.563 142.605 279.029 142.135 278.325 142.413Z" fill="#BCBEFF"/>
<path d="M207.563 195.877L207.328 195.749C207.183 195.662 207.017 195.616 206.848 195.616C206.679 195.616 206.513 195.662 206.368 195.749L205.493 196.261H205.92C205.831 196.492 205.787 196.739 205.792 196.987V210.737C205.8 211.311 205.943 211.875 206.21 212.384C206.477 212.892 206.86 213.33 207.328 213.662L207.563 213.79L207.861 213.94L207.648 214.41L208.565 213.876C208.761 213.739 208.916 213.551 209.013 213.333C209.111 213.115 209.148 212.875 209.12 212.637V198.802C209.103 198.227 208.953 197.664 208.683 197.157C208.413 196.65 208.03 196.211 207.563 195.877Z" fill="#E9E9FD"/>
<path d="M206.688 214.303L206.453 214.175C205.989 213.835 205.609 213.392 205.342 212.881C205.076 212.37 204.931 211.805 204.917 211.228V197.414C204.917 196.283 205.621 195.77 206.453 196.24L206.688 196.389C207.156 196.722 207.539 197.16 207.806 197.668C208.072 198.176 208.216 198.74 208.224 199.314V213.15C208.224 214.26 207.541 214.794 206.688 214.303Z" fill="#BCBEFF"/>
<path d="M207.563 216.993L207.328 216.865C207.183 216.778 207.017 216.733 206.848 216.733C206.679 216.733 206.513 216.778 206.368 216.865L205.493 217.356H205.92C205.829 217.587 205.785 217.834 205.792 218.082V231.896C205.8 232.473 205.943 233.04 206.21 233.552C206.477 234.064 206.86 234.506 207.328 234.843L207.563 234.971L207.861 235.099L207.648 235.569L208.565 235.056C208.761 234.924 208.916 234.741 209.014 234.526C209.112 234.311 209.148 234.073 209.12 233.839V219.918C209.104 219.343 208.956 218.78 208.685 218.272C208.415 217.764 208.031 217.327 207.563 216.993Z" fill="#E9E9FD"/>
<path d="M206.688 235.398L206.453 235.269C205.989 234.934 205.609 234.495 205.343 233.987C205.076 233.48 204.931 232.917 204.917 232.344V218.509C204.917 217.377 205.621 216.865 206.453 217.356L206.688 217.484C207.156 217.816 207.539 218.254 207.806 218.763C208.072 219.271 208.216 219.835 208.224 220.409V234.245C208.224 235.376 207.541 235.889 206.688 235.398Z" fill="#BCBEFF"/>
<path opacity="0.4" d="M152.352 314.483L124 298.107L152.352 281.709L180.704 298.107L152.352 314.483Z" fill="#0B0244"/>
<path d="M152.352 298.107L124 281.709V248.935L152.352 265.333V298.107Z" fill="url(#paint6_linear)"/>
<path d="M180.704 281.709L152.352 298.107V265.333L180.704 248.935V281.709Z" fill="url(#paint7_linear)"/>
<path d="M152.352 265.333L124 248.935L152.352 232.558L180.704 248.935L152.352 265.333Z" fill="url(#paint8_linear)"/>
<path d="M152.352 264.137L125.045 248.337L124 248.935L152.352 265.333L180.704 248.935L179.68 248.337L152.352 264.137Z" fill="white"/>
<path d="M234.421 365.684L230.56 367.926V353.983L234.421 351.763V365.684Z" fill="#BCBEFF"/>
<path d="M242.059 361.286L238.197 363.506V351.955L242.059 349.713V361.286Z" fill="#BCBEFF"/>
<path d="M249.696 356.865L245.835 359.107V341.087L249.696 338.845V356.865Z" fill="#BCBEFF"/>
<path d="M257.312 352.467L253.472 354.687V327.934L257.312 325.714V352.467Z" fill="#BCBEFF"/>
<path d="M264.949 348.047L261.088 350.268V272.421L264.949 270.201V348.047Z" fill="#BCBEFF"/>
<path d="M272.587 343.628L268.725 345.87V304.384L272.587 302.164V343.628Z" fill="#BCBEFF"/>
<path d="M280.224 339.229L276.363 341.45V281.282L280.224 279.04V339.229Z" fill="#BCBEFF"/>
<path d="M287.861 334.81L284 337.052V261.575L287.861 259.333V334.81Z" fill="#BCBEFF"/>
<path d="M295.499 330.39L291.637 332.631V261.916L295.499 259.674V330.39Z" fill="#BCBEFF"/>
<path d="M303.136 325.991L299.275 328.212V235.739L303.136 233.519V325.991Z" fill="#BCBEFF"/>
<path d="M310.773 321.572L306.912 323.814V222.48L310.773 220.26V321.572Z" fill="#BCBEFF"/>
</g>
<path opacity="0.4" d="M40.352 400.925L12 384.548L40.352 368.15L68.704 384.548L40.352 400.925Z" fill="#0B0244"/>
<path d="M40.352 384.549L12 368.151V335.376L40.352 351.774V384.549Z" fill="url(#paint9_linear)"/>
<path d="M68.704 368.151L40.3521 384.549V351.774L68.704 335.376V368.151Z" fill="url(#paint10_linear)"/>
<path d="M40.352 351.774L12 335.376L40.352 319L68.704 335.376L40.352 351.774Z" fill="url(#paint11_linear)"/>
<path d="M40.352 350.579L13.0453 334.779L12 335.377L40.352 351.774L68.704 335.377L67.68 334.779L40.352 350.579Z" fill="white"/>
<path opacity="0.3" d="M76.9067 230.282C73.857 230.328 70.8462 229.593 68.16 228.147L4.16 191.188C2.94625 190.605 1.91615 189.699 1.18243 188.569C0.448704 187.439 0.0396381 186.129 0 184.783C0.14578 183.142 0.721643 181.57 1.66937 180.224C2.6171 178.878 3.90309 177.806 5.39733 177.117L66.9013 141.76C72.7893 138.365 81.472 138.045 86.656 141.119L150.656 178.078C151.89 178.646 152.942 179.546 153.695 180.677C154.448 181.808 154.873 183.125 154.923 184.484C154.77 186.127 154.189 187.702 153.238 189.051C152.288 190.4 151 191.475 149.504 192.17L87.9147 227.506C84.5408 229.353 80.7521 230.309 76.9067 230.282ZM77.952 143.51C74.8893 143.47 71.8659 144.204 69.1627 145.646L7.72267 181.174C5.76 182.306 4.56533 183.715 4.56533 184.932C4.56533 186.149 5.76 186.96 6.464 187.366L70.4213 224.389C74.1973 226.524 81.088 226.247 85.6533 223.663L147.072 188.092C149.056 186.96 150.229 185.551 150.229 184.334C150.229 183.117 149.056 182.306 148.331 181.9L84.3307 144.962C82.3607 143.948 80.1665 143.449 77.952 143.51Z" fill="#EAE6FF"/>
<defs>
<linearGradient id="paint0_linear" x1="333.332" y1="370.605" x2="256.933" y2="503.428" gradientUnits="userSpaceOnUse">
<stop stop-color="#C0BFF6"/>
<stop offset="0.29" stop-color="#C5C4F7"/>
<stop offset="0.64" stop-color="#D3D2F9"/>
<stop offset="1" stop-color="#E9E9FD"/>
</linearGradient>
<linearGradient id="paint1_linear" x1="375.179" y1="413.19" x2="231.52" y2="413.19" gradientUnits="userSpaceOnUse">
<stop offset="0.35" stop-color="#BCBEFF"/>
<stop offset="0.44" stop-color="#B5B8FC"/>
<stop offset="0.57" stop-color="#A3A7F5"/>
<stop offset="0.72" stop-color="#848BE9"/>
<stop offset="0.88" stop-color="#5A64D8"/>
<stop offset="0.89" stop-color="#5761D7"/>
</linearGradient>
<linearGradient id="paint2_linear" x1="335.633" y1="345.752" x2="256.955" y2="482.537" gradientUnits="userSpaceOnUse">
<stop stop-color="#E9E9FD"/>
<stop offset="0.36" stop-color="#D3D2F9"/>
<stop offset="0.71" stop-color="#C5C4F7"/>
<stop offset="1" stop-color="#C0BFF6"/>
</linearGradient>
<linearGradient id="paint3_linear" x1="262.773" y1="417.226" x2="262.773" y2="102.678" gradientUnits="userSpaceOnUse">
<stop stop-color="#5761D7"/>
<stop offset="0.18" stop-color="#5C66D9"/>
<stop offset="0.39" stop-color="#6A73DF"/>
<stop offset="0.61" stop-color="#8289E8"/>
<stop offset="0.85" stop-color="#A3A7F5"/>
<stop offset="1" stop-color="#BCBEFF"/>
</linearGradient>
<linearGradient id="paint4_linear" x1="1847.61" y1="2133.68" x2="1847.61" y2="1895.58" gradientUnits="userSpaceOnUse">
<stop stop-color="#C0BFF6"/>
<stop offset="0.29" stop-color="#C5C4F7"/>
<stop offset="0.64" stop-color="#D3D2F9"/>
<stop offset="1" stop-color="#E9E9FD"/>
</linearGradient>
<linearGradient id="paint5_linear" x1="9864.58" y1="142956" x2="-5424.55" y2="116375" gradientUnits="userSpaceOnUse">
<stop stop-color="#C0BFF6"/>
<stop offset="0.29" stop-color="#C5C4F7"/>
<stop offset="0.64" stop-color="#D3D2F9"/>
<stop offset="1" stop-color="#E9E9FD"/>
</linearGradient>
<linearGradient id="paint6_linear" x1="163.279" y1="275.184" x2="103.115" y2="287.401" gradientUnits="userSpaceOnUse">
<stop stop-color="#BCBEFF"/>
<stop offset="0.15" stop-color="#B5B8FC"/>
<stop offset="0.36" stop-color="#A3A7F5"/>
<stop offset="0.6" stop-color="#848BE9"/>
<stop offset="0.87" stop-color="#5A64D8"/>
<stop offset="0.89" stop-color="#5761D7"/>
</linearGradient>
<linearGradient id="paint7_linear" x1="-94.0866" y1="-511.108" x2="-789.352" y2="-633.245" gradientUnits="userSpaceOnUse">
<stop stop-color="#E9E9FD"/>
<stop offset="0.36" stop-color="#D3D2F9"/>
<stop offset="0.71" stop-color="#C5C4F7"/>
<stop offset="1" stop-color="#C0BFF6"/>
</linearGradient>
<linearGradient id="paint8_linear" x1="119.117" y1="245.137" x2="190.111" y2="293.214" gradientUnits="userSpaceOnUse">
<stop stop-color="#E9E9FD"/>
<stop offset="0.54" stop-color="#D1D0F9"/>
<stop offset="1" stop-color="#C0BFF6"/>
</linearGradient>
<linearGradient id="paint9_linear" x1="51.2789" y1="361.626" x2="-8.88508" y2="373.843" gradientUnits="userSpaceOnUse">
<stop stop-color="#BCBEFF"/>
<stop offset="0.15" stop-color="#B5B8FC"/>
<stop offset="0.36" stop-color="#A3A7F5"/>
<stop offset="0.6" stop-color="#848BE9"/>
<stop offset="0.87" stop-color="#5A64D8"/>
<stop offset="0.89" stop-color="#5761D7"/>
</linearGradient>
<linearGradient id="paint10_linear" x1="-206.087" y1="-424.666" x2="-901.352" y2="-546.803" gradientUnits="userSpaceOnUse">
<stop stop-color="#E9E9FD"/>
<stop offset="0.36" stop-color="#D3D2F9"/>
<stop offset="0.71" stop-color="#C5C4F7"/>
<stop offset="1" stop-color="#C0BFF6"/>
</linearGradient>
<linearGradient id="paint11_linear" x1="7.11723" y1="331.578" x2="78.1112" y2="379.656" gradientUnits="userSpaceOnUse">
<stop stop-color="#E9E9FD"/>
<stop offset="0.54" stop-color="#D1D0F9"/>
<stop offset="1" stop-color="#C0BFF6"/>
</linearGradient>
<clipPath id="clip0">
<rect width="288" height="523" fill="white" transform="translate(124)"/>
</clipPath>
</defs>
</svg>
